# xmcd CD database file
#
# Track frame offsets:
#	150
#	13500
#	35346
#	47789
#	63359
#	79626
#	93590
#	110121
#	126668
#	134446
#	150910
#	169558
#	185560
#	205010
#	220604
#	227216
#	242974
#	260166
#	277930
#	297643
#
# Disc length: 4171 seconds
#
# Revision: 0
# Processed by: cddbd v1.5.2PL0 Copyright (c) Steve Scherf et al.
# Submitted via: CDex 1.70beta2
#
DISCID=27104914
DTITLE=Foitnrock - Des interessiert koa Sau
DYEAR=1900
DGENRE=Blues
TTITLE0=Des interessiert koa Sau
TTITLE1=I mog Frauen
TTITLE2=Mir zwoa hams schee
TTITLE3=Es gibt koan Puff in Lacklhuf
TTITLE4=I bin a Baam
TTITLE5=Der Selbstmörder
TTITLE6=Die Jünger von St. Florian
TTITLE7=Schau nach vorn
TTITLE8=Du bist des was i wui
TTITLE9=Annerl
TTITLE10=Eiszeit
TTITLE11=Für Dich
TTITLE12=I möchte an Hardrock
TTITLE13=Du bist das Universum
TTITLE14=Verlassen
TTITLE15=Die Welt is a Scheißhaus
TTITLE16=I bin wie da Wind
TTITLE17=I bin a stolzer Jäger
TTITLE18=Loan di an mi
TTITLE19=Gestern
EXTD=
EXTT0=
EXTT1=
EXTT2=
EXTT3=
EXTT4=
EXTT5=
EXTT6=
EXTT7=
EXTT8=
EXTT9=
EXTT10=
EXTT11=
EXTT12=
EXTT13=
EXTT14=
EXTT15=
EXTT16=
EXTT17=
EXTT18=
EXTT19=
PLAYORDER=
